<svg width="50" height="50" viewBox="0 0 50 50" fill="none" xmlns="http://www.w3.org/2000/svg">
<path d="M27.258 41.0146C26.7186 41.0146 26.2814 41.4518 26.2814 41.9911V49.0221C26.2814 49.5614 26.7186 49.9986 27.258 49.9986C27.7973 49.9986 28.2345 49.5613 28.2345 49.0221V41.9911C28.2345 41.4517 27.7973 41.0146 27.258 41.0146Z" fill="black"/>
<path d="M5.66688 47.6007C5.3415 47.8958 4.92482 48.0455 4.42845 48.0455C3.06356 48.0455 1.95305 46.9066 1.95305 45.5066C1.95305 44.1065 3.06356 42.9676 4.42845 42.9676C4.86115 42.9676 5.28652 43.0835 5.65868 43.3028C6.12321 43.5763 6.72202 43.4217 6.99574 42.957C7.26946 42.4923 7.11468 41.8937 6.64995 41.62C5.97761 41.2239 5.20947 41.0147 4.42845 41.0147C1.98664 41.0146 0 43.0296 0 45.5066C0 47.9834 1.98664 49.9986 4.42845 49.9986C5.41103 49.9986 6.29303 49.6696 6.97914 49.0473C7.37863 48.6849 7.40861 48.0673 7.04632 47.6679C6.68393 47.2684 6.06638 47.2383 5.66688 47.6007V47.6007Z" fill="black"/>
<path d="M23.6598 41.0772C23.148 40.9071 22.5953 41.1842 22.4252 41.6961L20.889 46.3203L19.2751 41.6708C19.0981 41.1613 18.5418 40.8914 18.0322 41.0685C17.5228 41.2454 17.2531 41.8017 17.4299 42.3113L19.8362 49.2432C19.9968 49.6959 20.4261 49.9985 20.9059 49.9985H20.9134C21.3962 49.9953 21.8251 49.6861 21.9829 49.2223L24.2786 42.3117C24.4486 41.8 24.1716 41.2473 23.6598 41.0772V41.0772Z" fill="black"/>
<path d="M12.8131 41.0219C10.9428 41.0219 9.42122 42.5434 9.42122 44.4137V46.6067C9.42122 48.477 10.9428 49.9985 12.8131 49.9985C14.6833 49.9985 16.2049 48.477 16.2049 46.6067V44.4137C16.205 42.5434 14.6833 41.0219 12.8131 41.0219V41.0219ZM14.2519 46.6067C14.2519 47.4001 13.6065 48.0455 12.8132 48.0455C12.0199 48.0455 11.3744 47.4001 11.3744 46.6067V44.4137C11.3744 43.6203 12.0198 42.9749 12.8132 42.9749C13.6065 42.9749 14.2519 43.6203 14.2519 44.4137V46.6067Z" fill="black"/>
<path d="M40.7258 41.0146H39.4915C38.9522 41.0146 38.515 41.4518 38.515 41.9911C38.515 42.5304 38.9522 42.9676 39.4915 42.9676H39.7493V49.0221C39.7493 49.5614 40.1865 49.9986 40.7258 49.9986C41.2652 49.9986 41.7024 49.5613 41.7024 49.0221V41.9911C41.7024 41.4517 41.2652 41.0146 40.7258 41.0146Z" fill="black"/>
<path d="M50 44.0818C50 42.4222 48.6499 41.0721 46.9902 41.0721C45.3307 41.0721 43.9806 42.4222 43.9806 44.0818C43.9806 45.7253 45.305 47.0645 46.9425 47.0903C46.4288 47.8207 45.9301 48.2108 45.9134 48.2236C45.4841 48.5463 45.3957 49.1556 45.7166 49.587C45.9083 49.8447 46.2027 49.9808 46.5009 49.9808C46.7035 49.9808 46.9078 49.9179 47.0829 49.7877C47.184 49.7125 49.5474 47.9178 49.9624 44.5557C49.9869 44.4014 50 44.2431 50 44.0818ZM45.9336 44.0818C45.9336 43.4991 46.4077 43.0251 46.9902 43.0251C47.5729 43.0251 48.0469 43.4991 48.0469 44.0818C48.0469 44.6645 47.5729 45.1384 46.9902 45.1384C46.4077 45.1384 45.9336 44.6645 45.9336 44.0818Z" fill="black"/>
<path d="M41.3336 17.2285C40.1641 17.2285 39.1638 17.964 38.7692 18.9965H37.549C37.4432 17.6073 37.111 16.2593 36.5573 14.9776C36.3433 14.4825 35.7686 14.2545 35.2736 14.4684C34.7785 14.6823 34.5505 15.2571 34.7644 15.7522C35.3408 17.0864 35.633 18.5064 35.633 19.9731C35.633 22.5594 34.7063 24.9332 33.1679 26.7806L32.553 26.1656C32.1716 25.7845 31.5533 25.7844 31.172 26.1656C30.7906 26.547 30.7905 27.1653 31.1719 27.5466L31.7868 28.1616C29.9394 29.7 27.5657 30.6267 24.9793 30.6267C22.393 30.6267 20.0192 29.7 18.1719 28.1616L18.2674 28.066C18.6487 27.6847 18.6487 27.0664 18.2674 26.6849C17.886 26.3037 17.2677 26.3037 16.8863 26.6849L16.7908 26.7805C15.2523 24.9331 14.3256 22.5593 14.3256 19.973C14.3256 17.3867 15.2523 15.0129 16.7908 13.1655L17.5941 13.9688C17.7848 14.1595 18.0347 14.2548 18.2846 14.2548C18.5345 14.2548 18.7844 14.1595 18.9751 13.9688C19.3564 13.5875 19.3564 12.9691 18.9751 12.5877L18.1718 11.7844C20.0192 10.246 22.3929 9.31928 24.9792 9.31928C26.4308 9.31928 27.8375 9.6058 29.1601 10.1707C29.6563 10.3826 30.2299 10.1522 30.4417 9.65628C30.6536 9.1603 30.4233 8.5865 29.9273 8.37469C28.6596 7.83321 27.3275 7.50792 25.9557 7.40344V6.20934C27.2336 5.79617 28.1607 4.59544 28.1607 3.18162C28.1607 1.42729 26.7334 0 24.9791 0C23.2248 0 21.7975 1.42729 21.7975 3.18162C21.7975 4.59534 22.7246 5.79607 24.0026 6.20934V7.40383C21.2594 7.61495 18.7597 8.70827 16.7866 10.3993L16.0094 9.6221C16.2101 9.21665 16.3236 8.76051 16.3236 8.27821C16.3236 6.60239 14.9603 5.23897 13.2844 5.23897C11.6085 5.23897 10.2451 6.60239 10.2451 8.27821C10.2451 9.95402 11.6085 11.3175 13.2844 11.3175C13.7667 11.3175 14.2228 11.204 14.6282 11.0032L15.4055 11.7804C13.7144 13.7536 12.6211 16.2533 12.41 18.9965H11.1892C10.7947 17.964 9.79435 17.2285 8.62486 17.2285C7.11144 17.2285 5.88034 18.4597 5.88034 19.973C5.88034 21.4863 7.11154 22.7175 8.62486 22.7175C9.79435 22.7175 10.7947 21.982 11.1892 20.9495H12.4099C12.621 23.6927 13.7144 26.1924 15.4055 28.1656L13.9205 29.6506C13.515 29.4498 13.0589 29.3363 12.5766 29.3363C10.9008 29.3363 9.53733 30.6996 9.53733 32.3755C9.53733 34.0513 10.9008 35.4147 12.5766 35.4147C14.2524 35.4147 15.6158 34.0513 15.6158 32.3755C15.6158 31.8932 15.5023 31.437 15.3016 31.0316L16.7866 29.5466C18.7598 31.2376 21.2594 32.3309 24.0026 32.5421V33.7628C22.97 34.1573 22.2346 35.1578 22.2346 36.3272C22.2346 37.8405 23.4658 39.0717 24.9791 39.0717C26.4925 39.0717 27.7237 37.8405 27.7237 36.3272C27.7237 35.1577 26.9881 34.1573 25.9557 33.7628V32.5421C28.6988 32.3309 31.1984 31.2375 33.1717 29.5466L33.8843 30.2592C33.6835 30.6647 33.57 31.1208 33.57 31.6031C33.57 33.2789 34.9334 34.6424 36.6093 34.6424C38.2851 34.6424 39.6485 33.2789 39.6485 31.6031C39.6485 29.9273 38.2852 28.564 36.6093 28.564C36.127 28.564 35.6708 28.6775 35.2654 28.8782L34.5527 28.1656C36.2437 26.1924 37.3371 23.6927 37.5482 20.9495H38.7688C39.1634 21.9821 40.1637 22.7175 41.3333 22.7175C42.8466 22.7175 44.0778 21.4863 44.0778 19.973C44.078 18.4596 42.8469 17.2285 41.3336 17.2285ZM24.9793 1.95315C25.6567 1.95315 26.2078 2.5043 26.2078 3.18172C26.2078 3.85913 25.6567 4.41029 24.9793 4.41029C24.3019 4.41029 23.7508 3.85913 23.7508 3.18172C23.7508 2.5043 24.3019 1.95315 24.9793 1.95315ZM13.2846 9.3644C12.6856 9.3644 12.1984 8.87711 12.1984 8.27821C12.1984 7.6793 12.6856 7.19202 13.2846 7.19202C13.8835 7.19202 14.3707 7.6793 14.3707 8.27821C14.3707 8.87711 13.8835 9.3644 13.2846 9.3644ZM8.62506 20.7645C8.18865 20.7645 7.83358 20.4094 7.83358 19.973C7.83358 19.5366 8.18865 19.1815 8.62506 19.1815C9.06147 19.1815 9.41653 19.5366 9.41653 19.973C9.41653 20.4094 9.06156 20.7645 8.62506 20.7645ZM12.5769 33.4617C11.978 33.4617 11.4907 32.9744 11.4907 32.3755C11.4907 31.7766 11.978 31.2894 12.5769 31.2894C13.1758 31.2894 13.6631 31.7766 13.6631 32.3755C13.663 32.9744 13.1757 33.4617 12.5769 33.4617ZM24.9793 37.1187C24.5429 37.1187 24.1878 36.7637 24.1878 36.3273C24.1878 35.8909 24.5429 35.5358 24.9793 35.5358C25.4157 35.5358 25.7708 35.8909 25.7708 36.3273C25.7708 36.7637 25.4157 37.1187 24.9793 37.1187ZM36.6094 30.517C37.2084 30.517 37.6956 31.0042 37.6956 31.6031C37.6956 32.202 37.2084 32.6893 36.6094 32.6893C36.0105 32.6893 35.5233 32.202 35.5233 31.6031C35.5233 31.0042 36.0105 30.517 36.6094 30.517ZM41.3336 20.7645C40.8972 20.7645 40.542 20.4094 40.542 19.973C40.542 19.5366 40.8971 19.1815 41.3336 19.1815C41.77 19.1815 42.1251 19.5366 42.1251 19.973C42.125 20.4094 41.77 20.7645 41.3336 20.7645Z" fill="#FF0000"/>
<path d="M16.6004 19.9733C16.6004 21.6492 17.9638 23.0126 19.6396 23.0126C21.3154 23.0126 22.6789 21.6492 22.6789 19.9733C22.6789 18.2975 21.3154 16.9341 19.6396 16.9341C17.9638 16.9341 16.6004 18.2974 16.6004 19.9733ZM20.7257 19.9733C20.7257 20.5722 20.2384 21.0595 19.6395 21.0595C19.0406 21.0595 18.5533 20.5722 18.5533 19.9733C18.5533 19.3744 19.0406 18.8872 19.6395 18.8872C20.2384 18.8872 20.7257 19.3744 20.7257 19.9733Z" fill="black"/>
<path d="M27.0544 12.8087C25.3786 12.8087 24.0151 14.172 24.0151 15.8479C24.0151 17.5237 25.3785 18.8872 27.0544 18.8872C28.7302 18.8872 30.0936 17.5237 30.0936 15.8479C30.0936 14.1721 28.7302 12.8087 27.0544 12.8087ZM27.0544 16.9341C26.4555 16.9341 25.9682 16.4468 25.9682 15.8479C25.9682 15.249 26.4555 14.7617 27.0544 14.7617C27.6533 14.7617 28.1406 15.249 28.1406 15.8479C28.1406 16.4468 27.6534 16.9341 27.0544 16.9341Z" fill="black"/>
<path d="M26.2105 22.2738C24.5347 22.2738 23.1713 23.6372 23.1713 25.313C23.1713 26.9888 24.5347 28.3522 26.2105 28.3522C27.8864 28.3522 29.2497 26.9888 29.2497 25.313C29.2497 23.6373 27.8864 22.2738 26.2105 22.2738ZM26.2105 26.3993C25.6116 26.3993 25.1244 25.912 25.1244 25.3131C25.1244 24.7142 25.6116 24.227 26.2105 24.227C26.8094 24.227 27.2966 24.7143 27.2966 25.3131C27.2966 25.912 26.8094 26.3993 26.2105 26.3993Z" fill="black"/>
<path d="M37.7678 10.224C39.4437 10.224 40.8071 8.86067 40.8071 7.18475C40.8071 5.50884 39.4437 4.14551 37.7678 4.14551C36.092 4.14551 34.7287 5.50893 34.7287 7.18475C34.7287 8.86057 36.092 10.224 37.7678 10.224ZM37.7678 6.09866C38.3667 6.09866 38.854 6.58594 38.854 7.18485C38.854 7.78375 38.3667 8.27104 37.7678 8.27104C37.1689 8.27104 36.6818 7.78375 36.6818 7.18485C36.6817 6.58585 37.1689 6.09866 37.7678 6.09866Z" fill="black"/>
<path d="M33.1863 12.71C33.4431 12.71 33.6951 12.6055 33.8767 12.4239C34.0584 12.2422 34.1629 11.9903 34.1629 11.7325C34.1629 11.4756 34.0584 11.2237 33.8767 11.042C33.6951 10.8604 33.4431 10.7559 33.1863 10.7559C32.9295 10.7559 32.6775 10.8604 32.4959 11.042C32.3142 11.2237 32.2097 11.4756 32.2097 11.7325C32.2097 11.9903 32.3142 12.2422 32.4959 12.4239C32.6775 12.6054 32.9295 12.71 33.1863 12.71V12.71Z" fill="black"/>
<path d="M32.7461 41.0146H31.1641C30.9048 41.0146 30.6561 41.1178 30.4729 41.3013C30.2897 41.4849 30.1871 41.7337 30.1876 41.9929V49.0256C30.1885 49.2849 30.3068 49.5331 30.4909 49.7156C30.6738 49.8969 30.9209 49.9986 31.1783 49.9986H31.1834C31.2269 49.9983 32.2541 49.9928 32.8213 49.983C34.9887 49.9451 36.5618 48.0624 36.5618 45.5066C36.5619 42.8198 35.0285 41.0146 32.7461 41.0146V41.0146ZM32.7873 48.0303C32.6092 48.0333 32.3805 48.0361 32.1515 48.0383C32.1489 47.2136 32.1438 43.8266 32.1424 42.9676H32.7461C34.4745 42.9676 34.6089 44.9109 34.6089 45.5066C34.6089 46.7469 34.0456 48.0082 32.7873 48.0303V48.0303Z" fill="black"/>
</svg>
